<?xml version="1.0" encoding="UTF-8" standalone="no"?>
<!-- Created with Inkscape (http://www.inkscape.org/) -->

<svg
   width="99.39238mm"
   height="56.282951mm"
   viewBox="0 0 99.39238 56.282951"
   version="1.1"
   id="svg1"
   inkscape:version="1.3.2 (091e20e, 2023-11-25, custom)"
   sodipodi:docname="logo.svg"
   xmlns:inkscape="http://www.inkscape.org/namespaces/inkscape"
   xmlns:sodipodi="http://sodipodi.sourceforge.net/DTD/sodipodi-0.dtd"
   xmlns="http://www.w3.org/2000/svg"
   xmlns:svg="http://www.w3.org/2000/svg">
  <sodipodi:namedview
     id="namedview1"
     pagecolor="#505050"
     bordercolor="#eeeeee"
     borderopacity="1"
     inkscape:showpageshadow="0"
     inkscape:pageopacity="0"
     inkscape:pagecheckerboard="0"
     inkscape:deskcolor="#505050"
     inkscape:document-units="mm"
     inkscape:zoom="0.5"
     inkscape:cx="1652"
     inkscape:cy="-577"
     inkscape:window-width="2560"
     inkscape:window-height="1351"
     inkscape:window-x="-9"
     inkscape:window-y="-9"
     inkscape:window-maximized="1"
     inkscape:current-layer="layer1" />
  <defs
     id="defs1">
    <inkscape:path-effect
       effect="bspline"
       id="path-effect3-6-92-5-3-0-6-1-7-8-7-9-7"
       is_visible="true"
       lpeversion="1.3"
       weight="33.333333"
       steps="2"
       helper_size="0"
       apply_no_weight="true"
       apply_with_weight="true"
       only_selected="false"
       uniform="false" />
    <inkscape:path-effect
       effect="bspline"
       id="path-effect19-9"
       is_visible="true"
       lpeversion="1.3"
       weight="33.333333"
       steps="2"
       helper_size="0"
       apply_no_weight="true"
       apply_with_weight="true"
       only_selected="false"
       uniform="false" />
  </defs>
  <g
     inkscape:label="Layer 1"
     inkscape:groupmode="layer"
     id="layer1"
     transform="translate(-744.83193,21.205608)">
    <text
       xml:space="preserve"
       style="font-size:35.2777px;line-height:1.25;font-family:'Antykwa Torunska';-inkscape-font-specification:'Antykwa Torunska';letter-spacing:0px;word-spacing:0px;fill:#000000;stroke:none;stroke-width:0.264583;stroke-opacity:1"
       x="769.46442"
       y="17.71855"
       id="text1-24-9-1-2-6-5-8-6-7-6-9-1"
       inkscape:export-filename="logo.png"
       inkscape:export-xdpi="200"
       inkscape:export-ydpi="200"><tspan
         sodipodi:role="line"
         id="tspan1-8-8-0-5-9-4-0-7-6-9-0-9"
         style="font-style:normal;font-variant:normal;font-weight:normal;font-stretch:normal;font-family:Montez;-inkscape-font-specification:Montez;fill:#000000;stroke:none;stroke-width:0.264583;stroke-opacity:1"
         x="769.46442"
         y="17.71855">lume</tspan></text>
    <rect
       style="fill:#000000;fill-opacity:1;stroke:none;stroke-width:0.765;stroke-linejoin:round;stroke-miterlimit:3.4;stroke-dasharray:none;stroke-opacity:1"
       id="rect19-7-5"
       width="49.39156"
       height="11.670083"
       x="766.52771"
       y="23.407257" />
    <text
       xml:space="preserve"
       style="font-size:42.5953px;line-height:1.25;font-family:'Antykwa Torunska';-inkscape-font-specification:'Antykwa Torunska';letter-spacing:0px;word-spacing:0px;fill:#000000;stroke:none;stroke-width:0.264582;stroke-opacity:1"
       x="743.15118"
       y="21.296509"
       id="text1-24-9-1-2-6-0-8-8-6-53-5-6-6"
       transform="scale(1.0014208,0.99858121)"><tspan
         sodipodi:role="line"
         id="tspan1-8-8-0-5-9-3-1-2-1-1-5-7-7"
         style="font-style:normal;font-variant:normal;font-weight:normal;font-stretch:normal;font-family:Montez;-inkscape-font-specification:Montez;fill:#000000;stroke:none;stroke-width:0.264582;stroke-opacity:1"
         x="743.15118"
         y="21.296509">P</tspan></text>
    <path
       style="fill:#ffffff;stroke:#000000;stroke-width:1;stroke-linejoin:round;stroke-miterlimit:3.4;stroke-opacity:1"
       d="m 34.610817,142.49208 c 2.699209,-3.35224 5.398381,-6.70444 6.887549,-10.74579 1.489167,-4.04134 1.768249,-8.77159 1.893415,-11.83694 0.125165,-3.06534 0.09641,-4.46565 0.06765,-5.86597 -0.834751,-0.48814 -1.669502,-0.97627 -2.504253,-1.46441 0.915767,-0.12621 1.831536,-0.25242 2.747302,-0.37863 1.29777,-3.97332 2.595541,-7.94664 3.893311,-11.91996 -5.895607,4.36212 -11.791216,8.72425 -15.239678,13.80043 -3.448462,5.07618 -4.449782,10.86642 -3.666142,15.72064 0.78364,4.85422 3.352243,8.77243 5.920844,12.69063 z"
       id="path2-9-2-9-6-66-1-4-9-3-3-5-0"
       sodipodi:nodetypes="cccccccssc"
       transform="matrix(-1,0,0,1,872.16253,-120.98607)"
       inkscape:original-d="m 34.610817,142.49208 c 0,0 5.398383,-6.70444 8.097626,-10.05673 0.27909,-4.7304 0.558172,-9.46065 0.83726,-14.19101 -0.02876,-1.40033 -0.08627,-4.20096 -0.08627,-4.20096 -0.834749,-0.48814 -2.504253,-1.46441 -2.504253,-1.46441 0,0 1.831536,-0.25242 2.747302,-0.37863 0,0 2.595541,-7.94664 3.893311,-11.91996 0,0 -11.791214,8.72425 -17.686821,13.08637 -1.001319,5.79024 -2.002639,11.58048 -3.003958,17.37072 2.568601,3.9182 7.705804,11.75461 7.705803,11.75461 z"
       inkscape:path-effect="#path-effect3-6-92-5-3-0-6-1-7-8-7-9-7" />
    <path
       style="font-size:35.2777px;line-height:1.25;font-family:Montez;-inkscape-font-specification:Montez;letter-spacing:0px;word-spacing:0px;fill:#000000;stroke:none;stroke-width:0.264583;stroke-opacity:1"
       d="m 834.58368,28.006289 -0.0461,0.53724 c 0,0 0.40209,-0.0549 0.58008,-0.0549 0.22967,0 0.44786,-0.0459 0.65457,-0.1378 0.2067,-0.0804 0.39618,-0.17226 0.56844,-0.27561 0.35599,-0.19522 0.67178,-0.48231 0.94739,-0.86127 0.26412,-0.37896 0.49379,-0.81534 0.68901,-1.30914 0.18374,-0.49379 0.34451,-1.03352 0.48232,-1.61919 0.12632,-0.57418 0.22967,-1.15984 0.31005,-1.75699 0.0804,-0.59715 0.14355,-1.18855 0.18948,-1.77422 0.0459,-0.58567 0.0746,-1.13114 0.0861,-1.63642 0.0357,-0.46773 -0.003,-0.70095 0.0172,-1.70532 0,-1.17133 -0.0402,-2.41156 -0.12057,-3.72069 -0.0804,-1.32062 -0.22394,-2.6355 -0.43064,-3.9446298 -0.20671,-1.32061 -0.48231,-2.606779 -0.82682,-3.858499 -0.35599,-1.25171 -0.80385,-2.40582 -1.34358,-3.46231 l -0.31005,0.10335 c 0.39044,1.98667 0.67753,3.97908 0.86127,5.977229 0.17224,1.9866698 0.25837,3.9790798 0.25837,5.9772298 0,0.73495 -0.0172,1.46416 -0.0517,2.18763 -0.0459,0.71199 -0.10909,1.42397 -0.18947,2.13595 l -0.12058,0.9474 c -0.37896,2.5953 -1.06798,5.15615 -2.06705,7.68255 -0.0345,0.0919 -0.0632,0.18374 -0.0861,0.27561 -0.0345,0.10335 -0.0517,0.20096 -0.0517,0.29283 h 4e-5 z"
       id="text1-4-7-1-22-3-6-7-3-6-6-0-0-8"
       aria-label="P"
       sodipodi:nodetypes="scscccccssccccccccscccccscs" />
    <text
       xml:space="preserve"
       style="font-size:9.04662px;line-height:1.25;font-family:'Antykwa Torunska';-inkscape-font-specification:'Antykwa Torunska';letter-spacing:0px;word-spacing:0px;fill:#f9f9f9;stroke:none;stroke-width:0.264582;stroke-opacity:1"
       x="770.08026"
       y="32.037479"
       id="text7-1-5-1-4-2-0-9-3-3-3-1"><tspan
         sodipodi:role="line"
         id="tspan7-9-9-8-0-6-4-4-8-2-0-1"
         style="font-style:normal;font-variant:normal;font-weight:normal;font-stretch:normal;font-size:9.04662px;font-family:Cambria;-inkscape-font-specification:Cambria;fill:#f9f9f9;stroke:none;stroke-width:0.264582;stroke-opacity:1"
         x="770.08026"
         y="32.037479">TextEngine</tspan></text>
    <path
       style="fill:none;fill-opacity:1;stroke:#000000;stroke-width:0.765;stroke-linejoin:round;stroke-miterlimit:3.4;stroke-dasharray:none;stroke-opacity:1"
       d="m 694.2042,5.5425018 c 1.16931,-0.7639514 2.33859,-1.527884 3.55663,-1.7812347 1.21804,-0.2533506 2.48475,0.00389 1.21142,1.6963528 -1.27332,1.6924647 -5.08659,4.8200211 -4.56956,6.2681151 0.51703,1.448094 5.36442,1.216663 8.31944,2.224427 2.95501,1.007765 4.01759,3.254649 5.10254,3.159047 1.08494,-0.0956 2.19213,-2.533682 3.29935,-4.971831"
       id="path19-1"
       inkscape:path-effect="#path-effect19-9"
       inkscape:original-d="m 694.2042,5.5425018 c 1.16931,-0.76395 2.33859,-1.5278834 3.5079,-2.2918362 1.26677,0.2572501 2.53348,0.5144887 3.80025,0.7717406 -3.81342,3.1276783 -7.62669,6.2552358 -11.44004,9.3828548 4.84741,-0.231432 9.6948,-0.462862 14.54222,-0.694295 1.06262,2.246958 2.1252,4.493842 3.18783,6.740853 1.10725,-2.438212 2.21444,-4.876291 3.32166,-7.314441"
       sodipodi:nodetypes="cccsscc"
       transform="translate(126.50065,11.265676)" />
  </g>
</svg>
